<svg id="Layer_1" data-name="Layer 1" xmlns="http://www.w3.org/2000/svg" viewBox="0 0 319.56 319.92"><defs><style>.cls-1{fill:#3c569f;}.cls-2{fill:#20386d;}.cls-3{fill:#fff;}.cls-4{fill:#9695c9;}</style></defs><title>facebook</title><circle class="cls-1" cx="159.92" cy="160" r="128"/><path class="cls-2" d="M147.39,258.38q.13-23.1.27-46.19c0-8.22-.18-16.44.08-24.65.13-4.08-.89-5.85-5.35-5.53-5.55.38-11.15,0-16.72.13-2.7.07-4-.6-4-3.64.16-8.21.13-16.43,0-24.64,0-2.85,1-3.93,3.85-3.88,7.16.11,14.32,0,22.1,0,0-4.56-.09-8.76,0-12.95.19-6.74-.4-13.65,1-20.15,3.43-16.4,17.26-27.27,34.06-27.66,7.77-.18,15.55.06,23.33-.08,3,0,4.2.81,4.11,4-.19,7.18-.16,14.38,0,21.56.07,2.93-1.06,3.86-3.86,3.79-5.13-.14-10.27-.08-15.4,0-7.06.09-10.78,3.76-10.91,10.88-.1,5.57.12,11.15-.08,16.72-.11,3.14,1.09,4,4.09,4,8.19-.16,16.38-.06,25.56-.06-1.39,10.87-2.7,21.19-4.08,32H180v76.4Z"/><path class="cls-3" d="M134.73,245.71q.14-23.1.26-46.19c0-8.22-.18-16.44.08-24.64.13-4.09-.89-5.85-5.35-5.54-5.55.39-11.14,0-16.71.13-2.7.07-4-.59-4-3.63.15-8.22.13-16.43,0-24.65,0-2.84,1-3.92,3.84-3.88,7.16.11,14.33,0,22.11,0,0-4.56-.1-8.76,0-13,.18-6.73-.41-13.65.95-20.15C139.4,87.85,153.24,77,170,76.59c7.77-.18,15.55.06,23.32-.09,3,0,4.2.81,4.12,4-.2,7.18-.17,14.38,0,21.56.06,2.93-1.07,3.86-3.86,3.79-5.13-.14-10.27-.08-15.41,0-7.06.09-10.78,3.77-10.91,10.88-.1,5.58.12,11.16-.08,16.73-.11,3.13,1.09,4,4.09,4,8.19-.16,16.38,0,25.56,0-1.38,10.87-2.7,21.18-4.07,32H167.31v76.4Z"/><path class="cls-4" d="M53.26,166a6,6,0,0,1-6-6A112.67,112.67,0,0,1,86,75,6,6,0,1,1,93.86,84a100.68,100.68,0,0,0-34.6,76A6,6,0,0,1,53.26,166Z"/><path class="cls-4" d="M107.25,73.23a6,6,0,0,1-3-11.21,111.52,111.52,0,0,1,22.33-9.67,6,6,0,1,1,3.54,11.46,100,100,0,0,0-19.93,8.64A6,6,0,0,1,107.25,73.23Z"/><path class="cls-1" d="M159.93,319.92A159.49,159.49,0,0,1,46.79,273.14c-62.39-62.39-62.39-163.89,0-226.28a160,160,0,0,1,226.27,0,6,6,0,1,1-8.48,8.49,148,148,0,0,0-209.31,0c-57.7,57.7-57.7,151.6,0,209.3s151.6,57.71,209.31,0a6,6,0,0,1,8.48,8.49A159.5,159.5,0,0,1,159.93,319.92Z"/><path class="cls-1" d="M310.62,197.86a5.81,5.81,0,0,1-1.24-.13,6,6,0,0,1-4.64-7.11c.94-4.45,1.68-9,2.2-13.54a6,6,0,1,1,11.92,1.38c-.56,4.89-1.36,9.82-2.38,14.63A6,6,0,0,1,310.62,197.86Z"/><path class="cls-1" d="M313.56,155.42a6,6,0,0,1-6-5.59,147.79,147.79,0,0,0-16.87-59.2A6,6,0,0,1,301.31,85a160,160,0,0,1,18.24,64A6,6,0,0,1,314,155.4Z"/></svg>