<svg id="Layer_1" data-name="Layer 1" xmlns="http://www.w3.org/2000/svg" xmlns:xlink="http://www.w3.org/1999/xlink" viewBox="0 0 319.56 319.92"><defs><style>.cls-1{fill:url(#linear-gradient);}.cls-2{opacity:0.78;}.cls-3{fill:#b487bc;}.cls-4{fill:url(#linear-gradient-2);}.cls-5{fill:url(#linear-gradient-3);}.cls-6{fill:url(#linear-gradient-4);}.cls-7{opacity:0.71;}.cls-8{fill:url(#linear-gradient-5);}.cls-9{fill:url(#linear-gradient-6);}.cls-10{fill:url(#linear-gradient-7);}.cls-11{fill:#fff;}</style><linearGradient id="linear-gradient" x1="51.77" y1="41.23" x2="271.31" y2="282.32" gradientUnits="userSpaceOnUse"><stop offset="0" stop-color="#6351a2"/><stop offset="0.05" stop-color="#6c4ea0"/><stop offset="0.13" stop-color="#84479c"/><stop offset="0.23" stop-color="#ab3a95"/><stop offset="0.34" stop-color="#e0298b"/><stop offset="0.37" stop-color="#ed2589"/><stop offset="0.4" stop-color="#ed2877"/><stop offset="0.46" stop-color="#ee2c53"/><stop offset="0.53" stop-color="#ee3039"/><stop offset="0.58" stop-color="#ee3229"/><stop offset="0.63" stop-color="#ee3324"/><stop offset="0.66" stop-color="#ee3c23"/><stop offset="0.72" stop-color="#ef5422"/><stop offset="0.79" stop-color="#f17b1f"/><stop offset="0.88" stop-color="#f3b11b"/><stop offset="0.96" stop-color="#f5e717"/></linearGradient><linearGradient id="linear-gradient-2" x1="51.71" y1="41.29" x2="271.25" y2="282.37" gradientUnits="userSpaceOnUse"><stop offset="0" stop-color="#6351a2"/><stop offset="0.46" stop-color="#ed2589"/><stop offset="0.55" stop-color="#ee3762"/><stop offset="0.68" stop-color="#ef4d35"/><stop offset="0.74" stop-color="#f05523"/><stop offset="0.76" stop-color="#f16522"/><stop offset="0.84" stop-color="#f29d1d"/><stop offset="0.91" stop-color="#f4c51a"/><stop offset="0.97" stop-color="#f5de18"/><stop offset="1" stop-color="#f5e717"/></linearGradient><linearGradient id="linear-gradient-3" x1="122.42" y1="-23.1" x2="341.96" y2="217.98" xlink:href="#linear-gradient-2"/><linearGradient id="linear-gradient-4" x1="151.56" y1="-49.64" x2="371.1" y2="191.44" xlink:href="#linear-gradient-2"/><linearGradient id="linear-gradient-5" x1="92.05" y1="169.18" x2="240.64" y2="169.18" gradientUnits="userSpaceOnUse"><stop offset="0.02" stop-color="#502d85"/><stop offset="0.11" stop-color="#682b76"/><stop offset="0.31" stop-color="#962659"/><stop offset="0.5" stop-color="#ba2342"/><stop offset="0.67" stop-color="#d42032"/><stop offset="0.83" stop-color="#e41f28"/><stop offset="0.96" stop-color="#e91e25"/></linearGradient><linearGradient id="linear-gradient-6" x1="128.15" y1="169.16" x2="204.5" y2="169.16" xlink:href="#linear-gradient-5"/><linearGradient id="linear-gradient-7" x1="197.05" y1="129.49" x2="214.9" y2="129.49" xlink:href="#linear-gradient-5"/></defs><title>instagram</title><circle class="cls-1" cx="159.93" cy="160" r="128"/><g class="cls-2"><path class="cls-3" d="M53.26,166a6,6,0,0,1-6-6A112.67,112.67,0,0,1,86,75,6,6,0,1,1,93.86,84a100.68,100.68,0,0,0-34.6,76A6,6,0,0,1,53.26,166Z"/><path class="cls-3" d="M107.25,73.23a6,6,0,0,1-3-11.21,111.52,111.52,0,0,1,22.33-9.67,6,6,0,1,1,3.54,11.46,100.5,100.5,0,0,0-19.93,8.63A5.92,5.92,0,0,1,107.25,73.23Z"/></g><path class="cls-4" d="M159.93,319.93A159.5,159.5,0,0,1,46.79,273.14c-62.39-62.39-62.39-163.89,0-226.28a160,160,0,0,1,226.27,0,6,6,0,1,1-8.48,8.49,148,148,0,0,0-209.31,0c-57.7,57.7-57.7,151.6,0,209.3s151.6,57.71,209.31,0a6,6,0,0,1,8.48,8.49A159.51,159.51,0,0,1,159.93,319.93Z"/><path class="cls-5" d="M310.62,197.86a5.81,5.81,0,0,1-1.24-.13,6,6,0,0,1-4.64-7.11c.94-4.45,1.68-9,2.2-13.54a6,6,0,1,1,11.92,1.38c-.56,4.89-1.36,9.82-2.38,14.63A6,6,0,0,1,310.62,197.86Z"/><path class="cls-6" d="M313.56,155.42a6,6,0,0,1-6-5.59,147.79,147.79,0,0,0-16.87-59.2A6,6,0,0,1,301.31,85a160,160,0,0,1,18.24,64A6,6,0,0,1,314,155.4Z"/><g class="cls-7"><path class="cls-8" d="M166.3,243.44c-7.15,0-14.3.08-21.45,0-7-.1-13.94-.13-20.76-1.77-16.57-4-26.66-14.37-30.43-30.94a78.26,78.26,0,0,1-1.54-16.92q-.14-24.65,0-49.27c0-6.77.38-13.55,2.34-20.11C99,109.15,109.27,100,124.66,96.52A77.6,77.6,0,0,1,141.58,95q24.69-.15,49.38,0c6.54.05,13.09.36,19.46,2.17,15.68,4.44,25.06,14.8,28.58,30.59,1.47,6.61,1.53,13.37,1.57,20.1q.13,21.28,0,42.58c0,7-.1,14-1.73,20.88-4,16.71-14.47,26.86-31.2,30.57-6.47,1.43-13.07,1.47-19.65,1.56C180.76,243.52,173.53,243.44,166.3,243.44Zm0-135.57v.23c-6,0-12-.09-17.93,0-6.84.13-13.72,0-20.47,1.33-10.73,2.14-17.82,8.33-20.8,19a55.41,55.41,0,0,0-1.64,14.5c-.13,15.29-.24,30.58-.18,45.87,0,6.27,0,12.57,1.29,18.77,2.19,10.77,8.41,17.85,19.12,20.8A53.33,53.33,0,0,0,139.67,230q26.63.12,53.24,0a67.53,67.53,0,0,0,11.62-1.09c10.88-2,18.05-8.33,21-19.14a55.94,55.94,0,0,0,1.61-14.51q.1-26.06,0-52.11a60.74,60.74,0,0,0-1.31-13.3c-1.72-7.53-5.63-13.5-12.46-17.31a34.41,34.41,0,0,0-15.94-3.92C187.08,108.25,176.71,108.1,166.35,107.87Z"/><path class="cls-9" d="M166.31,131a38.18,38.18,0,1,1-38.16,37.73A38.15,38.15,0,0,1,166.31,131Zm0,13.29a24.87,24.87,0,1,0,24.82,24.86A24.93,24.93,0,0,0,166.35,144.27Z"/><path class="cls-10" d="M206.13,138.39a8.9,8.9,0,1,1,8.77-9.1A8.93,8.93,0,0,1,206.13,138.39Z"/></g><path class="cls-11" d="M159.51,236.65c-7.15,0-14.3.08-21.45,0-7-.1-13.94-.13-20.77-1.77-16.56-4-26.65-14.37-30.42-30.94A77.67,77.67,0,0,1,85.33,187q-.14-24.63,0-49.27c0-6.76.38-13.54,2.34-20.11,4.57-15.24,14.81-24.36,30.2-27.88a77.53,77.53,0,0,1,16.92-1.55q24.69-.15,49.38,0c6.54,0,13.09.36,19.45,2.16,15.69,4.45,25.07,14.81,28.58,30.6,1.48,6.61,1.54,13.37,1.58,20.1q.14,21.28,0,42.58c0,7-.1,14-1.74,20.87-4,16.72-14.46,26.87-31.19,30.58-6.47,1.43-13.07,1.47-19.65,1.56C174,236.72,166.74,236.65,159.51,236.65Zm.05-135.57v.23c-6,0-12-.09-17.93,0-6.84.13-13.72,0-20.48,1.33-10.73,2.13-17.81,8.33-20.79,19a55.37,55.37,0,0,0-1.64,14.5c-.13,15.29-.24,30.58-.18,45.87,0,6.27,0,12.57,1.29,18.77,2.19,10.77,8.41,17.85,19.12,20.8a53.29,53.29,0,0,0,13.94,1.59q26.63.12,53.24,0a67.62,67.62,0,0,0,11.62-1.09c10.88-2,18-8.33,21-19.14a55.53,55.53,0,0,0,1.6-14.52q.12-26,0-52.1a60.13,60.13,0,0,0-1.3-13.3c-1.72-7.53-5.63-13.51-12.46-17.31a34.3,34.3,0,0,0-15.94-3.93C180.29,101.46,169.92,101.3,159.56,101.08Z"/><path class="cls-11" d="M159.52,124.19a38.18,38.18,0,1,1-38.16,37.73A38.15,38.15,0,0,1,159.52,124.19Zm0,13.29a24.87,24.87,0,1,0,24.82,24.86A24.93,24.93,0,0,0,159.56,137.48Z"/><path class="cls-11" d="M199.34,131.6a8.9,8.9,0,1,1,8.77-9.1A8.94,8.94,0,0,1,199.34,131.6Z"/></svg>