<svg id="Layer_1" data-name="Layer 1" xmlns="http://www.w3.org/2000/svg" viewBox="0 0 319.56 319.92"><defs><style>.cls-1{fill:#2aaae2;}.cls-2{fill:#84d5f3;}.cls-3{fill:#0d88ba;}.cls-4{fill:#fff;}</style></defs><title>twitter</title><circle class="cls-1" cx="159.92" cy="160" r="128"/><path class="cls-2" d="M53.26,166a6,6,0,0,1-6-6A112.67,112.67,0,0,1,86,75,6,6,0,1,1,93.86,84a100.68,100.68,0,0,0-34.6,76A6,6,0,0,1,53.26,166Z"/><path class="cls-2" d="M107.25,73.23a6,6,0,0,1-3-11.21,111.52,111.52,0,0,1,22.33-9.67,6,6,0,1,1,3.54,11.46,100.5,100.5,0,0,0-19.93,8.63A5.92,5.92,0,0,1,107.25,73.23Z"/><path class="cls-1" d="M159.93,319.93A159.5,159.5,0,0,1,46.79,273.14c-62.39-62.39-62.39-163.89,0-226.28a160,160,0,0,1,226.27,0,6,6,0,1,1-8.48,8.49,148,148,0,0,0-209.31,0c-57.7,57.7-57.7,151.6,0,209.3s151.6,57.71,209.31,0a6,6,0,0,1,8.48,8.49A159.51,159.51,0,0,1,159.93,319.93Z"/><path class="cls-1" d="M310.62,197.86a5.81,5.81,0,0,1-1.24-.13,6,6,0,0,1-4.64-7.11c.94-4.45,1.68-9,2.2-13.54a6,6,0,1,1,11.92,1.38c-.56,4.89-1.36,9.82-2.38,14.63A6,6,0,0,1,310.62,197.86Z"/><path class="cls-1" d="M313.56,155.42a6,6,0,0,1-6-5.59,147.79,147.79,0,0,0-16.87-59.2A6,6,0,0,1,301.31,85a160,160,0,0,1,18.24,64A6,6,0,0,1,314,155.4Z"/><path class="cls-3" d="M93.63,232.76A71.26,71.26,0,0,0,129.71,227a63.5,63.5,0,0,0,14.5-8.86,45.94,45.94,0,0,1-8.37-1.35,34.58,34.58,0,0,1-7.78-3.21,34.66,34.66,0,0,1-12.22-11.55,34.15,34.15,0,0,1-3.7-7.8c.39,0,.68,0,1,.06a33.94,33.94,0,0,0,13.65-.56,2.07,2.07,0,0,0,.69-.3c-10.44-2.53-18.37-8.34-23.5-17.79a33.84,33.84,0,0,1-4-16.44,38.36,38.36,0,0,0,7.58,3,30.3,30.3,0,0,0,7.89,1.11c-10.05-7.44-15.33-17.27-15.16-29.82a33.22,33.22,0,0,1,4.57-16.24c13.7,16.37,30.69,27.47,51.25,33a93.7,93.7,0,0,0,20.24,3.11c-.1-.61-.17-1.09-.26-1.58a34.41,34.41,0,0,1,26.08-40c12.46-2.81,23.38.46,32.57,9.37a1.35,1.35,0,0,0,1.39.46,70.25,70.25,0,0,0,20.06-7.56l1-.54c-.14.45-.22.73-.32,1A34.39,34.39,0,0,1,243,131.87a2.55,2.55,0,0,0-.69.59,66.47,66.47,0,0,0,19.21-5.07,1.64,1.64,0,0,1-.43.83,69.1,69.1,0,0,1-15.65,16.09,1.72,1.72,0,0,0-.78,1.69,78.56,78.56,0,0,1-.19,10.29,95.45,95.45,0,0,1-2.91,17.54,101.29,101.29,0,0,1-23.31,43.26,92.15,92.15,0,0,1-47.69,28.11,105.32,105.32,0,0,1-13.31,2.23,103.21,103.21,0,0,1-16.11.4,95.87,95.87,0,0,1-34.76-8.26,99.17,99.17,0,0,1-11.93-6.31Zm93.18,1.2h.2l0-.4h-.14Z"/><path class="cls-3" d="M188.81,235l0-.4H189l0,.4Z"/><path class="cls-4" d="M81,222.13A71.16,71.16,0,0,0,117,216.39a63.32,63.32,0,0,0,14.5-8.85,46,46,0,0,1-8.37-1.36,34.76,34.76,0,0,1-20-14.75,33.62,33.62,0,0,1-3.7-7.81c.38,0,.68,0,1,.07a34.12,34.12,0,0,0,13.65-.56,2.41,2.41,0,0,0,.69-.3c-10.44-2.53-18.37-8.35-23.51-17.79a33.87,33.87,0,0,1-4-16.45,37.76,37.76,0,0,0,7.58,3,30.25,30.25,0,0,0,7.89,1.12c-10-7.44-15.33-17.27-15.16-29.82a33.29,33.29,0,0,1,4.57-16.25c13.7,16.38,30.69,27.48,51.25,33a93.7,93.7,0,0,0,20.23,3.11c-.09-.61-.17-1.1-.26-1.58a34.43,34.43,0,0,1,26.09-40c12.46-2.8,23.38.47,32.57,9.38a1.37,1.37,0,0,0,1.39.46,69.81,69.81,0,0,0,20-7.57l1-.53c-.14.45-.22.72-.32,1a34.42,34.42,0,0,1-13.83,17.3,2.55,2.55,0,0,0-.69.59,66.26,66.26,0,0,0,19.21-5.08,1.68,1.68,0,0,1-.43.84,69.14,69.14,0,0,1-15.66,16.09,1.69,1.69,0,0,0-.77,1.69,80.34,80.34,0,0,1-.19,10.29,95.34,95.34,0,0,1-2.91,17.53,101.48,101.48,0,0,1-23.31,43.27,92.32,92.32,0,0,1-47.7,28.11,106.68,106.68,0,0,1-13.3,2.23,104.45,104.45,0,0,1-16.11.4,96,96,0,0,1-34.77-8.27,99.86,99.86,0,0,1-11.93-6.3Zm93.18,1.19h.2l0-.41h-.14Z"/><path d="M174.13,221.32l0-.4h.14l0,.41Z"/></svg>