<svg id="Layer_1" data-name="Layer 1" xmlns="http://www.w3.org/2000/svg" viewBox="0 0 319.56 319.92"><defs><style>.cls-1{fill:#e51e25;}.cls-2{fill:#f15a5a;}.cls-3{fill:#a41e21;}.cls-4{fill:#fff;}</style></defs><title>youtube</title><circle class="cls-1" cx="160" cy="160" r="128"/><path class="cls-2" d="M53.33,166a6,6,0,0,1-6-6A112.68,112.68,0,0,1,86.06,75,6,6,0,1,1,93.94,84a100.69,100.69,0,0,0-34.61,76A6,6,0,0,1,53.33,166Z"/><path class="cls-2" d="M107.32,73.23a6,6,0,0,1-3-11.21,111.44,111.44,0,0,1,22.32-9.67,6,6,0,1,1,3.55,11.46,100,100,0,0,0-19.93,8.63A5.93,5.93,0,0,1,107.32,73.23Z"/><path class="cls-1" d="M160,319.93A160,160,0,1,1,273.14,46.86a6,6,0,1,1-8.49,8.49,148,148,0,1,0-209.3,209.3c57.7,57.71,151.6,57.71,209.3,0a6,6,0,0,1,8.49,8.49A159.52,159.52,0,0,1,160,319.93Z"/><path class="cls-1" d="M310.69,197.86a5.87,5.87,0,0,1-1.24-.13,6,6,0,0,1-4.63-7.11c.93-4.45,1.67-9,2.2-13.54a6,6,0,1,1,11.92,1.38c-.57,4.89-1.37,9.82-2.38,14.63A6,6,0,0,1,310.69,197.86Z"/><path class="cls-1" d="M313.63,155.42a6,6,0,0,1-6-5.59,147.28,147.28,0,0,0-16.87-59.2A6,6,0,0,1,301.38,85a159.5,159.5,0,0,1,18.24,64,6,6,0,0,1-5.57,6.39Z"/><path class="cls-3" d="M246.47,151.06a64.33,64.33,0,0,0-2.71-14.95c-2.67-8-8.07-12.62-16.12-13.76a146.93,146.93,0,0,0-14.83-1.17c-9.16-.37-18.33-.7-27.49-.79-11.46-.11-22.92,0-34.37.12-8.84.12-17.68.45-26.52.8-4.89.2-9.8.26-14.59,1.42a18.27,18.27,0,0,0-12,8.84A32.29,32.29,0,0,0,94,143.81c-.6,4.91-1.11,9.85-1.32,14.79A355.25,355.25,0,0,0,93,200.26c.43,5.77,1,11.52,3,17,1.78,5,4.73,8.78,9.45,11.1,3.92,1.92,8.15,2.42,12.36,2.78,5.53.47,11.08.67,16.62.82,11.81.34,23.62.56,35.44.84v-.31c5.87,0,11.75.12,17.62,0q16-.42,32.09-1.13a56.76,56.76,0,0,0,10-1.17,18,18,0,0,0,13.07-10.62,34.42,34.42,0,0,0,3.06-10.85c.68-6.85,1.33-13.73,1.5-20.62A331.8,331.8,0,0,0,246.47,151.06Z"/><path class="cls-4" d="M158.2,220.16c-11.81-.27-23.62-.5-35.43-.83-5.55-.16-11.1-.36-16.62-.83-4.21-.36-8.45-.85-12.37-2.78-4.72-2.32-7.66-6.12-9.44-11.1-2-5.51-2.56-11.25-3-17A359.65,359.65,0,0,1,81,145.93c.21-4.94.72-9.88,1.32-14.79A32.52,32.52,0,0,1,86.2,118.9a18.22,18.22,0,0,1,12-8.83c4.79-1.17,9.71-1.23,14.59-1.42,8.84-.36,17.68-.69,26.52-.81,11.46-.16,22.91-.23,34.37-.12,9.17.09,18.34.42,27.5.8A146.72,146.72,0,0,1,216,109.68c8.05,1.14,13.45,5.79,16.12,13.76a64.42,64.42,0,0,1,2.71,15,331.75,331.75,0,0,1,.74,37c-.17,6.88-.82,13.76-1.5,20.62a34.74,34.74,0,0,1-3,10.85,18,18,0,0,1-13.08,10.61,57.73,57.73,0,0,1-10,1.18q-16,.7-32.09,1.12c-5.88.15-11.75,0-17.63,0Zm-16.06-80.55v45l41.91-22.4Z"/><path class="cls-1" d="M137,131.25l51.37,27.65a3.77,3.77,0,0,1,0,6.59L137,193a3.62,3.62,0,0,1-5.29-3.28V134.53A3.62,3.62,0,0,1,137,131.25Z"/></svg>